<svg version="1.1" xmlns="http://www.w3.org/2000/svg" x="0px" y="0px" viewBox="0 0 192.438 50"><path fill="#ED1D24" d="M25.218,5.41L39.618,0L16.227,31.695L25.218,5.41z"/><path fill="#ED1D24" d="M10.971,17.066l4.875,14.705L0,12.725L10.971,17.066z"/><path fill="#A7A9AC" d="M11.428,17.448l1.829,1.981l2.59,11.961C15.847,31.391,11.503,17.22,11.428,17.448"/><path fill="#A7A9AC" d="M39.923,0.152l0.991,1.676L16.532,31.62L39.923,0.152z"/><path fill="#231F20" d="M107.564,43.069H16.472v-0.385h91.092V43.069z"/><path fill="#231F20" d="M36.208,31.57V16.488h12.658c0.982,0,1.799,0.094,2.453,0.279c0.655,0.186,1.179,0.465,1.571,0.837 c0.394,0.372,0.669,0.833,0.834,1.389c0.163,0.56,0.246,1.208,0.246,1.951v6.32c0,0.713-0.083,1.339-0.246,1.874 c-0.166,0.535-0.441,0.982-0.834,1.339c-0.392,0.355-0.916,0.629-1.571,0.813c-0.654,0.186-1.471,0.279-2.453,0.279H36.208z M51.359,20.944c0-0.428-0.04-0.785-0.118-1.071c-0.078-0.285-0.213-0.515-0.403-0.686c-0.188-0.172-0.446-0.292-0.764-0.363 c-0.321-0.07-0.723-0.108-1.208-0.108H38.818v10.625h10.048c0.485,0,0.887-0.035,1.208-0.108c0.318-0.071,0.576-0.185,0.764-0.343 c0.19-0.155,0.326-0.371,0.403-0.641c0.078-0.272,0.118-0.607,0.118-1.007V20.944z"/><path fill="#231F20" d="M48.866,32.101H35.679V15.959h13.188c1.024,0,1.896,0.101,2.596,0.299c0.737,0.209,1.34,0.532,1.794,0.961 c0.458,0.433,0.786,0.981,0.978,1.624c0.176,0.609,0.266,1.317,0.266,2.103v6.318c0,0.762-0.089,1.445-0.268,2.029 c-0.192,0.627-0.524,1.158-0.984,1.577c-0.457,0.416-1.059,0.728-1.785,0.932C50.768,31.999,49.894,32.101,48.866,32.101 M36.738,31.04h12.128c0.929,0,1.705-0.087,2.308-0.26c0.57-0.159,1.027-0.393,1.36-0.695c0.322-0.292,0.545-0.654,0.682-1.102 c0.148-0.484,0.223-1.063,0.223-1.719v-6.318c0-0.687-0.075-1.292-0.223-1.804c-0.139-0.467-0.366-0.844-0.691-1.153 s-0.781-0.549-1.351-0.711c-0.605-0.172-1.383-0.258-2.308-0.258H36.738V31.04z M48.866,29.873H38.287V18.186h10.579 c0.516,0,0.959,0.041,1.323,0.121c0.414,0.091,0.75,0.255,1.007,0.489c0.263,0.238,0.451,0.554,0.556,0.938 c0.092,0.337,0.138,0.744,0.138,1.212v6.297c0,0.441-0.046,0.829-0.139,1.153c-0.109,0.377-0.302,0.683-0.575,0.906 c-0.25,0.208-0.582,0.36-0.986,0.45C49.83,29.832,49.396,29.873,48.866,29.873 M39.348,28.812h9.518 c0.443,0,0.812-0.032,1.092-0.096c0.238-0.052,0.418-0.129,0.539-0.231c0.11-0.09,0.186-0.214,0.234-0.382 c0.066-0.227,0.098-0.517,0.098-0.86v-6.297c0-0.374-0.034-0.688-0.1-0.933c-0.051-0.186-0.131-0.328-0.247-0.432 c-0.119-0.107-0.293-0.188-0.524-0.239c-0.286-0.063-0.654-0.096-1.092-0.096h-9.518V28.812z"/><polygon fill="#231F20" points="59.905,25.358 59.905,31.569 57.295,31.569 57.295,16.489 71.504,16.489 71.504,18.716 59.905,18.716 59.905,23.129 70.718,23.129 70.718,25.358 "/><path fill="#231F20" d="M60.436,32.1h-3.672V15.958h15.27v3.288H60.436v3.353h10.812v3.291H60.436V32.1z M57.825,31.039h1.55v-6.21 h10.812V23.66H59.375v-5.474h11.598V17.02H57.825V31.039z"/><path fill="#231F20" d="M78.027,31.569c-0.784,0-1.451-0.089-2.002-0.268c-0.549-0.178-0.998-0.429-1.343-0.749 c-0.348-0.321-0.6-0.702-0.757-1.146c-0.158-0.442-0.235-0.934-0.235-1.477v-7.799c0-0.541,0.078-1.035,0.235-1.477 c0.157-0.442,0.409-0.825,0.757-1.147c0.346-0.32,0.794-0.57,1.343-0.749c0.551-0.179,1.218-0.268,2.002-0.268h11.128v2.226H78.027 c-1.153,0-1.727,0.467-1.727,1.394v7.842c0,0.928,0.574,1.392,1.727,1.392h11.128v2.227H78.027z"/><path fill="#231F20" d="M89.685,32.1H78.027c-0.837,0-1.563-0.099-2.165-0.294c-0.619-0.201-1.138-0.492-1.541-0.866 c-0.408-0.376-0.711-0.833-0.896-1.358c-0.177-0.492-0.266-1.048-0.266-1.652V20.13c0-0.604,0.089-1.162,0.267-1.656 c0.186-0.521,0.486-0.978,0.895-1.356c0.401-0.372,0.92-0.664,1.541-0.864c0.599-0.197,1.328-0.295,2.165-0.295h11.658v3.288H78.027 c-1.105,0-1.198,0.445-1.198,0.862v7.843c0,0.415,0.093,0.861,1.198,0.861h11.658V32.1z M78.027,17.019 c-0.724,0-1.343,0.082-1.836,0.243c-0.476,0.153-0.862,0.367-1.149,0.633c-0.287,0.265-0.487,0.571-0.618,0.936 c-0.135,0.381-0.206,0.817-0.206,1.3v7.799c0,0.481,0.07,0.918,0.206,1.297c0.13,0.368,0.331,0.672,0.616,0.935 c0.291,0.27,0.677,0.483,1.147,0.636c0.496,0.161,1.115,0.241,1.839,0.241h10.597v-1.166H78.027c-2.037,0-2.258-1.345-2.258-1.921 v-7.843c0-0.579,0.221-1.923,2.258-1.923h10.597v-1.167H78.027z"/><path fill="#231F20" d="M96.464,31.569c-0.784,0-1.451-0.089-2.003-0.268c-0.549-0.178-0.996-0.429-1.343-0.749 c-0.347-0.321-0.599-0.702-0.756-1.146c-0.158-0.442-0.235-0.934-0.235-1.477v-7.799c0-0.541,0.078-1.035,0.235-1.477 c0.157-0.442,0.409-0.825,0.756-1.147c0.347-0.32,0.794-0.57,1.343-0.749c0.553-0.179,1.219-0.268,2.003-0.268h11.128v2.226H96.464 c-1.153,0-1.727,0.467-1.727,1.394v7.842c0,0.928,0.574,1.392,1.727,1.392h11.128v2.227H96.464z"/><path fill="#231F20" d="M108.124,32.1H96.464c-0.836,0-1.563-0.099-2.166-0.294c-0.618-0.201-1.137-0.492-1.54-0.866 c-0.408-0.376-0.71-0.834-0.897-1.358c-0.175-0.494-0.266-1.051-0.266-1.652V20.13c0-0.602,0.09-1.16,0.268-1.655 c0.184-0.521,0.486-0.978,0.895-1.357c0.401-0.372,0.919-0.664,1.54-0.864c0.603-0.197,1.33-0.295,2.166-0.295h11.659v3.288H96.464 c-1.105,0-1.198,0.445-1.198,0.862v7.843c0,0.415,0.093,0.861,1.198,0.861h11.659V32.1z M96.464,17.019 c-0.726,0-1.343,0.082-1.839,0.243c-0.474,0.153-0.857,0.367-1.146,0.633c-0.285,0.265-0.488,0.571-0.615,0.936 c-0.138,0.381-0.206,0.818-0.206,1.3v7.799c0,0.48,0.067,0.917,0.203,1.298c0.13,0.366,0.331,0.671,0.616,0.934 c0.291,0.271,0.677,0.483,1.147,0.636c0.496,0.161,1.115,0.241,1.839,0.241h10.598v-1.166H96.464c-2.037,0-2.258-1.345-2.258-1.921 v-7.843c0-0.579,0.221-1.923,2.258-1.923h10.598v-1.167H96.464z"/><path fill="#231F20" d="M114.979,31.569V16.489h11.247c0.758,0,1.41,0.075,1.953,0.226c0.542,0.148,0.98,0.363,1.314,0.642 c0.333,0.279,0.579,0.621,0.735,1.028c0.158,0.405,0.236,0.86,0.236,1.361v1.392c0,0.656-0.146,1.209-0.441,1.659 c-0.295,0.452-0.69,0.732-1.188,0.846c0.524,0.158,0.955,0.425,1.295,0.804c0.341,0.378,0.509,0.932,0.509,1.66v2.206 c0,0.429-0.068,0.839-0.206,1.233c-0.137,0.393-0.374,0.739-0.707,1.038c-0.332,0.299-0.782,0.54-1.343,0.717 c-0.563,0.179-1.27,0.268-2.12,0.268H114.979z M127.853,19.895c0-0.415-0.118-0.714-0.353-0.9c-0.233-0.185-0.659-0.279-1.274-0.279 h-8.636v3.921h8.636c0.615,0,1.042-0.092,1.274-0.278c0.235-0.185,0.353-0.485,0.353-0.899V19.895z M128.031,26.149 c0-0.469-0.163-0.802-0.491-0.994c-0.326-0.194-0.752-0.29-1.275-0.29h-8.675v4.478h8.675c0.523,0,0.95-0.109,1.275-0.323 c0.328-0.214,0.491-0.626,0.491-1.242V26.149z"/><path fill="#231F20" d="M126.265,32.101h-11.815V15.958h11.778c0.802,0,1.506,0.083,2.092,0.246c0.61,0.168,1.12,0.419,1.512,0.746 c0.405,0.337,0.704,0.756,0.893,1.247c0.179,0.465,0.271,0.986,0.271,1.55v1.393c0,0.758-0.179,1.415-0.528,1.95 c-0.137,0.207-0.291,0.388-0.462,0.539c0.189,0.137,0.365,0.291,0.521,0.467c0.429,0.474,0.646,1.151,0.646,2.013v2.207 c0,0.488-0.08,0.962-0.236,1.408c-0.165,0.475-0.452,0.898-0.852,1.258c-0.389,0.348-0.905,0.625-1.539,0.827 C127.931,32.001,127.163,32.101,126.265,32.101 M115.51,31.039h10.754c0.791,0,1.45-0.081,1.96-0.242 c0.488-0.155,0.874-0.358,1.148-0.606c0.269-0.242,0.452-0.509,0.56-0.819c0.118-0.333,0.176-0.689,0.176-1.058v-2.207 c0-0.591-0.126-1.03-0.373-1.304c-0.277-0.31-0.62-0.523-1.054-0.653l-1.931-0.579l1.966-0.446c0.361-0.083,0.643-0.284,0.862-0.619 c0.236-0.359,0.354-0.821,0.354-1.369v-1.393c0-0.433-0.065-0.825-0.199-1.168c-0.124-0.326-0.314-0.591-0.582-0.814 c-0.274-0.229-0.65-0.41-1.116-0.537c-0.494-0.137-1.103-0.207-1.809-0.207H115.51V31.039z M126.265,29.873h-9.206v-5.537h9.206 c0.619,0,1.138,0.122,1.545,0.363c0.342,0.2,0.751,0.616,0.751,1.451v1.628c0,0.802-0.247,1.369-0.73,1.686 C127.417,29.734,126.89,29.873,126.265,29.873 M118.119,28.811h8.146c0.415,0,0.746-0.078,0.985-0.235 c0.208-0.137,0.25-0.509,0.25-0.798v-1.628c0-0.404-0.161-0.498-0.228-0.538c-0.243-0.144-0.582-0.216-1.007-0.216h-8.146V28.811z M126.227,23.167h-9.168v-4.981h9.168c0.742,0,1.265,0.128,1.601,0.392c0.371,0.294,0.556,0.735,0.556,1.317v1.565 c0,0.583-0.188,1.026-0.556,1.316C127.491,23.041,126.981,23.167,126.227,23.167 M118.119,22.105h8.108 c0.684,0,0.896-0.124,0.945-0.163c0.101-0.08,0.151-0.242,0.151-0.483v-1.565c0-0.241-0.051-0.404-0.153-0.485 c-0.046-0.036-0.261-0.163-0.943-0.163h-8.108V22.105z"/><polygon fill="#231F20" points="149.116,31.569 141.992,19.423 134.751,31.569 131.847,31.569 141.031,16.489 142.937,16.489 152.061,31.569 "/><path fill="#231F20" d="M153,32.1h-4.189l-6.821-11.635L135.052,32.1h-4.149l9.83-16.142h2.503L153,32.1z M149.42,31.039h1.7 l-8.483-14.019h-1.308l-8.539,14.019h1.659l7.546-12.657L149.42,31.039z"/><polygon fill="#231F20" points="171.225,31.569 156.484,19.831 156.484,31.569 154.208,31.569 154.208,16.489 156.466,16.489 170.222,27.692 170.222,16.489 172.5,16.489 172.5,31.569 "/><path fill="#231F20" d="M173.029,32.1h-1.99l-14.024-11.169V32.1h-3.338V15.958h2.977l13.037,10.619V15.958h3.339V32.1z M171.41,31.039h0.559V17.02h-1.216v11.789L156.275,17.02h-1.537v14.019h1.217V18.731L171.41,31.039z"/><polygon fill="#231F20" points="188.247,31.569 183.028,24.843 178.533,24.843 178.533,31.569 175.923,31.569 175.923,16.489 178.533,16.489 178.533,22.616 182.969,22.616 188.168,16.489 191.27,16.489 185.127,23.515 191.25,31.569 "/><path fill="#231F20" d="M192.317,32.1h-4.33l-5.219-6.728h-3.706V32.1h-3.671V15.958h3.671v6.128h3.66l5.202-6.128h4.513 l-6.626,7.581L192.317,32.1z M188.506,31.039h1.674l-5.735-7.547l5.657-6.472h-1.686l-5.202,6.127h-5.212V17.02h-1.55v14.019h1.55 v-6.726h5.285L188.506,31.039z"/><path fill="#ED1D24" d="M117.086,38.46h1.137l-1.236,4.248h0.039c0.333-0.341,0.662-0.654,0.966-0.941l3.654-3.307h1.412 l-4.277,3.737l1.961,5.07h-1.346l-1.644-4.325l-1.118,0.967l-0.977,3.357h-1.137L117.086,38.46z"/><path fill="#ED1D24" d="M123.063,44.316c-0.427,1.555,0.381,2.195,1.53,2.195c0.823,0,1.362-0.145,1.847-0.327l-0.045,0.824 c-0.458,0.183-1.215,0.404-2.22,0.404c-1.947,0-2.732-1.293-2.179-3.201c0.558-1.907,2.116-3.411,3.96-3.411 c2.064,0,2.084,1.816,1.745,2.98c-0.069,0.235-0.148,0.418-0.194,0.536H123.063z M126.676,43.492 c0.225-0.732,0.243-1.869-1.05-1.869c-1.163,0-1.984,1.071-2.308,1.869H126.676z"/><path fill="#ED1D24" d="M129.61,44.316c-0.426,1.555,0.381,2.195,1.531,2.195c0.822,0,1.361-0.145,1.847-0.327l-0.045,0.824 c-0.458,0.183-1.215,0.404-2.221,0.404c-1.948,0-2.734-1.293-2.179-3.201c0.556-1.907,2.117-3.411,3.959-3.411 c2.066,0,2.084,1.816,1.746,2.98c-0.067,0.235-0.147,0.418-0.195,0.536H129.61z M133.222,43.492 c0.226-0.732,0.244-1.869-1.051-1.869c-1.163,0-1.984,1.071-2.308,1.869H133.222z"/><path fill="#ED1D24" d="M135.896,43.009c0.235-0.811,0.398-1.465,0.549-2.065h1.034l-0.265,1.084h0.025 c0.696-0.771,1.573-1.228,2.606-1.228c1.529,0,2.303,1.293,1.744,3.215c-0.664,2.273-2.375,3.396-3.866,3.396 c-0.835,0-1.461-0.366-1.656-0.993h-0.026l-1.002,3.438h-1.136L135.896,43.009z M136.543,44.693 c-0.05,0.171-0.069,0.327-0.084,0.471c-0.024,0.797,0.507,1.346,1.332,1.346c1.215,0,2.21-0.993,2.632-2.444 c0.37-1.267,0.019-2.353-1.196-2.353c-0.784,0-1.68,0.563-2.152,1.425c-0.082,0.144-0.17,0.314-0.215,0.47L136.543,44.693z"/><path fill="#ED1D24" d="M151.718,46.876c-0.564,0.184-1.656,0.484-2.847,0.484c-1.332,0-2.332-0.339-2.954-1.164 c-0.545-0.731-0.673-1.907-0.273-3.279c0.778-2.627,3.141-4.548,6.094-4.548c1.021,0,1.753,0.222,2.077,0.405l-0.543,0.928 c-0.409-0.209-0.947-0.378-1.837-0.378c-2.146,0-3.931,1.332-4.573,3.541c-0.651,2.235,0.311,3.554,2.363,3.554 c0.743,0,1.285-0.104,1.583-0.234l0.765-2.626h-1.788l0.265-0.915h2.901L151.718,46.876z"/><path fill="#ED1D24" d="M154.569,42.917c0.217-0.745,0.39-1.385,0.521-1.973h1.008l-0.323,1.24h0.053 c0.536-0.848,1.383-1.384,2.154-1.384c0.129,0,0.219,0.014,0.313,0.04l-0.313,1.083c-0.11-0.025-0.223-0.039-0.381-0.039 c-0.812,0-1.565,0.614-1.972,1.476c-0.072,0.158-0.153,0.34-0.211,0.538l-0.979,3.37h-1.138L154.569,42.917z"/><path fill="#ED1D24" d="M164.102,44.054c-0.68,2.339-2.597,3.357-4.127,3.357c-1.711,0-2.666-1.255-2.084-3.254 c0.617-2.116,2.362-3.357,4.114-3.357C163.822,40.8,164.666,42.12,164.102,44.054 M159.065,44.119 c-0.404,1.386,0.089,2.431,1.212,2.431c1.099,0,2.223-1.034,2.638-2.458c0.313-1.071,0.174-2.431-1.188-2.431 C160.37,41.662,159.415,42.916,159.065,44.119"/><path fill="#ED1D24" d="M166.824,40.944l-0.1,3.214c-0.023,0.707-0.046,1.359-0.116,2.013h0.039c0.331-0.641,0.738-1.32,1.149-2.013 l1.967-3.214h0.967l0.061,3.162c0.014,0.759,0.002,1.425-0.039,2.065h0.036c0.294-0.641,0.658-1.306,1.083-2.052l1.826-3.175h1.137 l-3.88,6.325h-1.045l-0.088-3.019c-0.018-0.707-0.018-1.333,0.043-2.079h-0.028c-0.376,0.759-0.762,1.412-1.183,2.09l-1.895,3.007 h-1.045l-0.064-6.325H166.824z"/><path fill="#ED1D24" d="M174.143,47.268l1.84-6.324h1.151l-1.843,6.324H174.143z M177.782,39.166 c-0.102,0.393-0.48,0.706-0.938,0.706c-0.406,0-0.603-0.313-0.488-0.706c0.12-0.405,0.511-0.718,0.93-0.718 C177.717,38.448,177.899,38.761,177.782,39.166"/><path fill="#ED1D24" d="M178.542,42.655c0.192-0.651,0.334-1.189,0.446-1.711h1.019l-0.238,1.046h0.025 c0.491-0.602,1.394-1.189,2.438-1.189c0.875,0,2.084,0.522,1.451,2.692l-1.1,3.776h-1.15l1.063-3.646 c0.298-1.02,0.165-1.869-0.92-1.869c-0.759,0-1.501,0.535-1.886,1.176c-0.094,0.144-0.175,0.339-0.233,0.536l-1.108,3.802h-1.149 L178.542,42.655z"/><path fill="#ED1D24" d="M190.113,46.354c-0.422,1.451-0.968,2.34-1.742,2.887c-0.782,0.576-1.724,0.759-2.521,0.759 c-0.759,0-1.543-0.184-1.952-0.524l0.544-0.874c0.341,0.26,0.926,0.496,1.708,0.496c1.178,0,2.22-0.613,2.683-2.209l0.207-0.706 h-0.025c-0.526,0.589-1.343,1.06-2.321,1.06c-1.567,0-2.304-1.334-1.793-3.084c0.623-2.144,2.373-3.358,3.825-3.358 c1.099,0,1.529,0.574,1.655,1.098h0.024l0.331-0.955h1.005c-0.158,0.457-0.333,0.967-0.558,1.738L190.113,46.354z M189.827,43.439 c0.055-0.196,0.091-0.365,0.085-0.523c-0.016-0.665-0.416-1.215-1.253-1.215c-1.098,0-2.152,0.929-2.578,2.393 c-0.361,1.241-0.035,2.273,1.206,2.273c0.705,0,1.478-0.444,1.937-1.176c0.124-0.196,0.214-0.417,0.27-0.613L189.827,43.439z"/></svg>